# xmcd CD database file
#
# Track frame offsets:
#	150
#	12682
#	24787
#	37462
#	55875
#	68325
#	98650
#	110300
#	131100
#
# Disc length: 1918 seconds
#
# Revision: 0
# Processed by: cddbd v1.5.1PL0 Copyright (c) Steve Scherf et al.
# Submitted via: CDex 1.51
#
DISCID=73077c09
DTITLE=Freddy Fender - Live In Concert
DYEAR=1995
DGENRE=Country
TTITLE0=Wasted Days And Wasted Nights
TTITLE1=Before The Next Teardrop Falls
TTITLE2=Rancho Grande
TTITLE3=Secret Love
TTITLE4=Tell It Like It Is
TTITLE5=Mexican Rose
TTITLE6=Walking Piece Of Heaven
TTITLE7=Six Days On The Road
TTITLE8=I Can't Stop Loving You
EXTD=YEAR: 1995
EXTT0=
EXTT1=
EXTT2=
EXTT3=
EXTT4=
EXTT5=
EXTT6=
EXTT7=
EXTT8=
PLAYORDER=
